<?xml version="1.0" encoding="utf-8"?>
<svg id="Livello_1" xmlns="http://www.w3.org/2000/svg" version="1.1" viewBox="0 0 1074.5 474.3">
  <polygon points="128.6 0 128.6 155.6 128.1 155.6 24 0 4.6 0 4.6 188.8 21.7 188.8 21.7 28.3 22.3 28.3 129.7 188.8 145.7 188.8 145.7 0 128.6 0" style="fill: rgb(255, 255, 255);"/>
  <g>
    <path d="M436.2,157.4v-88h-23.5v-15.1h23.5V6.1h17.6v48.2h35v15.1h-35v84.5c0,14.3,4.6,21.9,21.2,21.9s10.2-.5,14-1.8v15.1c-4.1.8-11.2,1.5-17.3,1.5-25.8,0-35.5-10-35.5-33.2" style="fill: rgb(255, 255, 255);"/>
    <path d="M220,71.7c26.1.3,32.4,24.4,33.9,38l-71.3-.8c4.7-27.6,22.1-37.4,37.4-37.2M344.3,116.7l-5.1-7.6-3.7-5.6-30.4-46.1-19.5-.2,38.2,56.4c-22.7-3.7-39.8,11.2-58.3,36.3-6.8,9.3-15.1,15.7-25.4,21.3-6.4,3.5-14.6,4.5-20.1,4.5-23-.1-41.5-16.8-41.4-49.6l95.3,1.1v-3.3c.6-45.5-22.4-69.6-53.5-69.9-28.1-.3-58.7,21.1-59.2,68.3-.5,45.5,26.5,69.9,57.6,70.2,0,0,32.5,2,54.7-29.7,22.6-30.3,33-37.1,51.1-34.4l-43.8,61.9,18.7.2,38.6-55.4,5.9-7.9c2.3-3.1,2.4-7.3.3-10.4" style="fill: rgb(255, 255, 255);"/>
    <path d="M380,154.9l-17.4-25.2h0s-3.8-5.5-3.8-5.5l-2.1-3.1h0s.2-.3.2-.3l45-64.2h-19.1c0,0-34.8,51.1-34.8,51.1l4.6,6.8c2.7,3.9,2.6,9.2-.2,13l-5.2,7.1,2.4,3.5,18.7,27.6,5.4,8,11.4,16.8h19.3c0,0-24.6-35.7-24.6-35.7Z" style="fill: rgb(255, 255, 255);"/>
    <path d="M825,86c-11.3-7.6-23.4-4.3-25.9-.1-.9,13.6-.7,34.5.3,45,.6,6.9,2.6,10,7.8,10.7l6.7.5v4.7h-51.7v-4.7l3.6-.5c5.2-.7,7.2-3.8,7.8-10.7,1-11.4,1.2-35.2,0-48.4-.6-6.9-2.6-10-7.8-10.7l-3.6-.5v-3.4l37.1-7.2-.4,19.4c8.7-19.9,25.8-22.6,35.2-17l-9.1,22.9ZM1070.4,86.7l-4.3,1.1c-4.5-14.7-11.4-21-21.5-21s-11.6,5-11.6,12.4,5.5,11.1,21.2,17.2c14.5,5.6,20.3,12.1,20.3,23.9,0,17.6-13.5,28.4-35.6,28.4s-22.5-2.4-29.4-5.2l-.7-24.3,4.3-1.1c6.1,17,14,23.2,24.5,23.2s13.9-6.3,13.9-13.1-3.7-10.5-17.9-15.6c-13.2-4.7-22.7-10.5-22.7-25.2s12.7-26.6,33.6-26.6,19,1.7,25.1,4.5l.9,21.4ZM951.7,94.9l26.1-.6c.1-11.5-1.7-28-11.1-28s-14.8,15.6-15,28.6M925.7,105.5c0-23,14.5-44.7,43.2-44.7s34.5,17.3,34.6,39.9h-52.1c-.6,20.5,9.8,35.6,29.7,35.6s13.5-2.2,18.8-6.2l2.4,2.9c-5.8,8-17.8,15.6-33.8,15.6-25.1,0-42.8-17.8-42.8-43.2M718.4,66.1c-12.3,0-15.7,16.6-15.7,38.6s5.4,38.6,16.9,38.6,15.7-16.6,15.7-38.6-5.4-38.6-16.9-38.6M719.8,60.8c27.8,0,41.6,18.9,41.6,43.7s-15.6,44.2-43.4,44.2-41.7-18.9-41.7-43.7,15.6-44.2,43.4-44.2M688.5,62.6l-5.8,1.6c-5.1-16.9-13.1-26.5-28.2-26.5h-19.3c-.9,10.8-1.2,28.8-1.2,47.5l13-.4c8.6-.3,12.3-6.7,14.4-16.2h4.9v39.6h-4.9c-2.1-9.5-5.7-15.9-14.4-16.2l-13-.4c.1,14.2.5,26.3,1.1,33.5.9,10.5,3.7,15.2,11.2,16.3l6.6.7v4.7h-62.9v-4.7l5.2-.7c7.5-1.1,10.3-5.7,11.2-16.3,1.4-17.4,1.7-53.5,0-73.7-.9-10.6-3.8-15.2-11.2-16.3l-5.2-.7v-4.7h97.9l.5,32.9ZM872.2,142.8c-2.1,0-4.8-.3-6.3-.6-.6-8-.9-41-.9-69.8,3.4-1.2,5.7-1.4,8.7-1.4,12.2,0,19.1,14.1,19.1,31.9,0,22.7-8.4,39.9-20.6,39.9M885.2,61.7c-7.7,0-13.8,2.1-20.2,5.2,0-18.1.3-33.9.7-39.9l-37.2,7.2v3.4l3.6.5c5.2.7,7.2,3.7,7.8,10.7,1.2,13.3,1,84.5,0,96,10,2.2,20.9,4,31.7,4,29.5,0,47.3-18.3,47.3-47.1s-14.4-39.8-33.8-39.8" style="fill: rgb(255, 255, 255);"/>
  </g>
  <rect x="761.9" y="165.8" width="2.5" height="27" style="fill: rgb(255, 255, 255);"/>
  <polygon points="779.6 165.8 798.7 165.8 798.7 167.9 790.4 167.9 790.4 192.8 787.8 192.8 787.8 167.9 779.6 167.9 779.6 165.8" style="fill: rgb(255, 255, 255);"/>
  <path d="M813.9,182.1h10.3l-5.1-14.2-5.1,14.2ZM807.5,192.8l10.3-27h2.8l10,27h-2.5l-3-8.5h-11.9l-3.1,8.5h-2.5Z" style="fill: rgb(255, 255, 255);"/>
  <polygon points="845.4 192.8 845.4 165.8 847.9 165.8 847.9 190.6 861.9 190.6 861.9 192.8 845.4 192.8" style="fill: rgb(255, 255, 255);"/>
  <rect x="877.6" y="165.8" width="2.5" height="27" style="fill: rgb(255, 255, 255);"/>
  <path d="M901.7,182.1h10.3l-5.1-14.2-5.1,14.2ZM895.3,192.8l10.3-27h2.8l10,27h-2.5l-3-8.5h-11.9l-3.1,8.5h-2.5Z" style="fill: rgb(255, 255, 255);"/>
  <rect x="546.3" y="3.3" width="2.5" height="186.6" style="fill: rgb(255, 255, 255);"/>
  <path d="M217.7,334.2c4.2-1.6,8.7-2.4,13.3-2.4,11.2,0,19.3,3.5,24.9,10.5,4.9,6.2,8,14.2,9.6,23.9h-71.9c.9-4.4,2.2-8.4,3.9-11.9,2.5-5.2,5.6-9.5,9-12.9,3.3-3.2,7.1-5.7,11.3-7.3M279.5,411.9l-4.1,5.7c-5.5,7.6-11.5,13.5-17.9,17.4-6.1,3.7-14.4,5.6-24.5,5.6s-11-1.1-15.9-3.1c-4.8-2-9-5-12.6-8.9-3.6-4-6.6-9-8.9-15-1.7-4.4-2.8-9.4-3.4-15h111v-11.7c0-14.9-1.8-28.1-5.4-39.1-3.6-11.2-8.7-20.7-15.1-28.2-6.5-7.6-14.3-13.3-23.2-17-8.7-3.6-18.3-5.4-28.4-5.4s-18.3,1.8-27.5,5.2c-9.2,3.5-17.7,8.9-25.2,16.2-7.5,7.2-13.6,16.5-18.2,27.7-4.6,11.1-6.9,24.3-6.9,39.5s2.1,27.4,6.4,38.3c4.3,11,10.1,20.3,17.2,27.8,7.2,7.5,15.6,13.2,25,16.9,9.3,3.7,19.1,5.6,29.2,5.6,16,0,29.8-3.3,41-9.7,11-6.3,20.6-15.2,28.5-26.5l3.3-4.6-24.5-21.6Z" style="fill: rgb(255, 255, 255);"/>
  <path d="M373.3,440.4c-6.7,0-11.8-1.5-15.3-4.4-3.2-2.7-4.7-6.8-4.7-12.5s1-7.2,3-10.5c2.1-3.4,5.9-6.7,11.2-9.8,5.7-3.4,13.5-6.5,23.1-9.4,8.1-2.4,18-4.6,29.4-6.6v34c-6.3,5.8-13.1,10.4-20.5,13.8-7.9,3.7-16.7,5.6-26.2,5.6M462.5,462.3c-1.4-3.4-2.4-8-3-13.6-.6-5.8-1-13.6-1-22.9v-69.6c0-8.8-1.1-16.8-3.3-24-2.3-7.5-5.9-13.9-10.8-19.1-4.9-5.2-11.2-9.2-18.9-11.9-7.4-2.6-16.2-4-26.2-4-16.6,0-31.5,3.1-44.2,9.1-12.5,5.9-23.7,13.4-33.3,22.2l-4.5,4.1,21.5,25.8,4.9-4.3c7.3-6.4,15.4-11.8,24-16.1,8.2-4.1,17.9-6.2,28.8-6.2,16.5,0,23.5,6.8,23.5,22.8v1.7c-17.4,2.7-32.5,6-44.8,9.8-13.9,4.4-25.4,9.5-34.2,15.4-9.1,6.1-15.7,13.1-19.9,20.7-4.2,7.7-6.3,16.1-6.3,25.1,0,14.6,4.7,26.1,14.1,34.2,9.1,7.9,21.4,11.8,36.6,11.8s39.2-6,55.5-17.9v.5c.8,3.4,1.8,7,2.8,10.5l1.3,4.6h40.7l-3.5-8.7Z" style="fill: rgb(255, 255, 255);"/>
  <path d="M594.2,419.1c-5.7,5.9-11.7,10.8-17.8,14.6-6.4,3.9-13.4,5.8-21.5,5.8s-10.6-1-15.2-3c-4.6-2-8.4-5-11.8-9.2-3.4-4.3-6.3-9.8-8.3-16.4-2.1-6.7-3.1-14.9-3.1-24.4,0-19.3,3.6-33.5,10.8-42.1,7-8.4,16.1-12.5,27.9-12.5s14.1,1.8,20.7,5.3c6.2,3.4,12.4,8.3,18.3,14.7v67.3ZM636.8,462c-1.5-3.4-2.6-7.9-3.2-13.4-.7-5.9-1-13.6-1-22.9v-188.6h-38.4v75c-3.9-3-8.1-5.6-12.6-7.8-9.4-4.7-19.5-7.1-30-7.1s-20.2,1.9-29.2,5.7c-9.1,3.9-17.1,9.6-23.7,17.2-6.5,7.5-11.6,16.9-15.3,27.9-3.6,10.8-5.4,23.6-5.4,38s1.8,27.1,5.3,37.8c3.5,10.9,8.5,20.2,14.8,27.5,6.4,7.4,14.1,13,22.8,16.6,8.6,3.6,17.9,5.4,27.7,5.4s24.2-2.7,33.4-8c4.8-2.8,9.2-5.9,13.4-9.4.8,4.4,1.7,8,2.8,11l1.6,4.1h41.1l-4.1-9Z" style="fill: rgb(255, 255, 255);"/>
  <path d="M717.8,334.2c4.2-1.6,8.7-2.4,13.3-2.4,11.2,0,19.3,3.5,24.8,10.5,4.9,6.2,8.1,14.2,9.6,23.9h-71.8c.9-4.4,2.2-8.4,3.9-11.9,2.5-5.2,5.6-9.5,9-12.9,3.3-3.2,7.1-5.7,11.2-7.3M779.6,411.9l-4.1,5.7c-5.5,7.6-11.5,13.5-17.9,17.4-6.1,3.7-14.4,5.6-24.5,5.6s-11-1.1-15.9-3.1c-4.8-2-9-5-12.6-8.9-3.6-3.9-6.6-9-8.9-15-1.7-4.4-2.8-9.4-3.4-15h111v-11.7c0-14.9-1.8-28.1-5.4-39.1-3.6-11.2-8.7-20.7-15.1-28.2-6.5-7.6-14.3-13.3-23.2-17-8.7-3.6-18.3-5.4-28.4-5.4s-18.3,1.8-27.5,5.2c-9.2,3.5-17.7,8.9-25.2,16.2-7.5,7.2-13.6,16.6-18.2,27.7-4.6,11.1-6.9,24.3-6.9,39.5s2.2,27.4,6.4,38.3c4.3,11,10.1,20.3,17.2,27.8,7.2,7.5,15.6,13.2,25,16.9,9.3,3.7,19.1,5.6,29.2,5.6,16,0,29.7-3.3,41-9.7,11-6.3,20.6-15.2,28.5-26.5l3.2-4.6-24.5-21.6Z" style="fill: rgb(255, 255, 255);"/>
  <path d="M928.2,297.3l-3,40.1-7.7-3.7c-.4,0-.9,0-1.7,0h-3.7c-11.2,0-21.1,2.7-29.4,8.2-8,5.3-14.7,12.9-19.8,22.5v106.7h-38.4v-170.4h38.4v18.4c4.2-4.1,8.9-7.9,14.1-11.2,10.8-6.9,24.6-10.4,41.1-10.4h10.2Z" style="fill: rgb(255, 255, 255);"/>
  <path d="M1069.9,421.4c0,8.6-1.9,16.4-5.6,23.1-3.7,6.6-8.8,12.2-15.3,16.6-6.3,4.3-13.7,7.6-22,9.7-8.2,2.1-17.1,3.2-26.6,3.2-15.2,0-28.9-2.7-40.9-8.2-12-5.5-21.6-12.5-28.6-21l-3.7-4.4,24.2-24.3,4.5,4.8c5.4,5.8,11.9,10.6,19.3,14.4,7.1,3.6,15.6,5.4,25.3,5.4s19.4-1.8,24.8-5.3c4.6-3,6.8-7.2,6.8-13.2s-2.1-9.4-6.9-12.1c-6.2-3.5-15.9-6.8-28.8-9.8-8.5-2-16.4-4.3-23.6-6.8-7.5-2.6-14.1-5.8-19.4-9.6-5.7-4-10.2-9.1-13.4-15.2-3.3-6.1-4.9-13.5-4.9-22.1s1.5-13.5,4.4-19.5c2.9-6,7.1-11.3,12.6-15.7,5.4-4.4,11.9-7.9,19.5-10.4,7.5-2.5,16-3.8,25.2-3.8,14.8,0,27.4,2.2,37.6,6.7,10.1,4.4,19.2,10.3,27.1,17.8l4.2,4-21.3,27-5.1-4.7c-5.4-5.1-11.8-9.2-18.9-12.4-6.9-3.1-14.5-4.7-22.5-4.7s-16.8,1.7-20.4,4.8c-3.5,3.1-5.2,6.3-5.2,10s1.9,8.4,6,10.7c5.6,3.2,14.5,6.1,26.4,8.7,9.2,2.3,17.6,4.6,25.1,7,7.9,2.6,14.9,5.9,20.7,9.9,6.1,4.3,10.9,9.6,14.2,15.8,3.4,6.3,5.1,14.1,5.1,23.3" style="fill: rgb(255, 255, 255);"/>
  <polygon points="0 237.2 0 471 145.4 471 145.4 434.4 39 434.4 39 237.2 0 237.2" style="fill: rgb(255, 255, 255);"/>
</svg>