<svg xmlns="http://www.w3.org/2000/svg" viewBox="0 0 593.23 296.78"><defs><style>.cls-1{fill:#fff;}</style></defs><g id="Livello_2" data-name="Livello 2"><g id="vettoriale"><path class="cls-1" d="M340.5,47.24V86h23.18v8.8H330V47.24Z"/><path class="cls-1" d="M405.13,47.24V56H380V66.23h23.05v8.13H380V86h25.65v8.8H369.55V47.24Z"/><path class="cls-1" d="M436.44,47.24l17.8,47.58H443.38l-3.6-10.6H422l-3.74,10.6H407.73l18-47.58Zm.6,29.19-6-17.46h-.14l-6.19,17.46Z"/><path class="cls-1" d="M478.89,47.24a24.43,24.43,0,0,1,8.56,1.47,18.67,18.67,0,0,1,6.87,4.4,20.29,20.29,0,0,1,4.53,7.32,29.9,29.9,0,0,1,1.63,10.33,33.25,33.25,0,0,1-1.33,9.6,21.11,21.11,0,0,1-4,7.59,18.68,18.68,0,0,1-6.73,5,22.6,22.6,0,0,1-9.49,1.84H458.37V47.24ZM478.16,86a13.35,13.35,0,0,0,4.39-.73,9.73,9.73,0,0,0,3.8-2.43A12.36,12.36,0,0,0,489,78.43a19.73,19.73,0,0,0,1-6.67,28,28,0,0,0-.7-6.49,13.1,13.1,0,0,0-2.3-5,10.27,10.27,0,0,0-4.23-3.16,16.78,16.78,0,0,0-6.5-1.1h-7.46V86Z"/><path class="cls-1" d="M326.3,135v-8.8h39V135H351v38.78H340.56V135Z"/><path class="cls-1" d="M381.21,126.21v18.26h19.25V126.21h10.46v47.58H400.46V153.27H381.21v20.52H370.75V126.21Z"/><path class="cls-1" d="M455.7,126.21V135H430.58V145.2h23.05v8.13H430.58V165h25.65v8.8H420.12V126.21Z"/><path class="cls-1" d="M363.48,205.18V214h-23v11h19.92v8.13H340.5v19.66H330V205.18Z"/><path class="cls-1" d="M404.53,249.13q-5.4,4.69-14.93,4.7t-15-4.67q-5.29-4.66-5.29-14.39V205.18h10.46v29.59a21.82,21.82,0,0,0,.33,3.8,7.43,7.43,0,0,0,4.36,5.63,12.08,12.08,0,0,0,5.1.9c3.73,0,6.31-.84,7.73-2.5s2.13-4.28,2.13-7.83V205.18h10.46v29.59Q409.92,244.43,404.53,249.13Z"/><path class="cls-1" d="M415.19,214v-8.8h39V214H439.91v38.78H429.45V214Z"/><path class="cls-1" d="M494.61,249.13q-5.4,4.69-14.92,4.7t-15-4.67q-5.3-4.66-5.3-14.39V205.18h10.46v29.59a20.9,20.9,0,0,0,.34,3.8,7.43,7.43,0,0,0,4.36,5.63,12,12,0,0,0,5.1.9c3.73,0,6.3-.84,7.73-2.5s2.13-4.28,2.13-7.83V205.18H500v29.59Q500,244.43,494.61,249.13Z"/><path class="cls-1" d="M534.66,205.18a15.27,15.27,0,0,1,5.76,1,13.27,13.27,0,0,1,4.4,2.83,12.46,12.46,0,0,1,2.8,4.16,13.45,13.45,0,0,1,1,5.1,14.35,14.35,0,0,1-1.76,7.26,11.11,11.11,0,0,1-5.76,4.67v.13a8.16,8.16,0,0,1,3.19,1.63,9,9,0,0,1,2.07,2.6,12.41,12.41,0,0,1,1.17,3.3,29.63,29.63,0,0,1,.49,3.6c0,.75.09,1.64.14,2.66s.12,2.07.23,3.14a21.73,21.73,0,0,0,.53,3,7.15,7.15,0,0,0,1.1,2.43H539.52a18.58,18.58,0,0,1-1.07-5.4c-.13-2.09-.33-4.08-.59-6a9.47,9.47,0,0,0-2.27-5.46q-1.73-1.72-5.66-1.73H519.47v18.59H509V205.18Zm-3.73,21.53a7.94,7.94,0,0,0,5.39-1.6q1.8-1.61,1.8-5.2t-1.8-5a8,8,0,0,0-5.39-1.57H519.47v13.4Z"/><path class="cls-1" d="M592.69,205.18V214H567.57v10.19h23.06v8.13H567.57V244h25.66v8.8H557.11V205.18Z"/><path class="cls-1" d="M44,21.56A28.33,28.33,0,0,0,18.49,47.62L0,290.68a5.67,5.67,0,0,0,6.11,6.09l179.69-14.55a76.55,76.55,0,0,0,70.09-69.81L273.43,6.15A5.66,5.66,0,0,0,267.24,0Zm89.26,232.27H48.54V97.45H78.16V227.82h55.13Zm98-130.54H187.57v37.64H228l-2.26,25.86H187.06v54.27a12.13,12.13,0,0,1-12.13,12.13H157.44V97.45H233.6Zm4.47-50.92H132.73v130h-28.8V72.29H49V46.82H238Z"/></g></g></svg>