<svg xmlns="http://www.w3.org/2000/svg" width="1318" height="500" viewBox="0 0 1318 500" fill="none"><path d="M0 251.476V217.041C22.1844 217.041 37.6482 212.515 46.3915 203.463C55.2652 194.28 59.7021 179.391 59.7021 158.796V108.619C59.7021 86.4489 62.4425 68.2802 67.9234 54.1126C73.5347 39.9449 81.6908 28.9256 92.3915 21.0547C103.092 13.1838 116.142 7.73972 131.54 4.72253C146.939 1.57418 164.426 0 184 0V54.7029C168.601 54.7029 156.791 56.8674 148.57 61.1964C140.349 65.3942 134.672 71.8877 131.54 80.6769C128.539 89.4661 127.038 100.682 127.038 114.325V178.867C127.038 188.968 125.342 198.413 121.949 207.202C118.556 215.991 112.357 223.731 103.353 230.421C94.3489 236.98 81.495 242.162 64.7915 245.966C48.2184 249.639 26.6213 251.476 0 251.476ZM184 500C164.426 500 146.939 498.426 131.54 495.277C116.142 492.26 103.092 486.816 92.3915 478.945C81.6908 471.074 73.5347 460.055 67.9234 445.887C62.4425 431.72 59.7021 413.551 59.7021 391.381V341.401C59.7021 320.805 55.2652 305.982 46.3915 296.93C37.6482 287.748 22.1844 283.156 0 283.156V248.721C26.6213 248.721 48.2184 250.623 64.7915 254.427C81.495 258.1 94.3489 263.282 103.353 269.972C112.357 276.532 118.556 284.206 121.949 292.995C125.342 301.784 127.038 311.164 127.038 321.133V385.675C127.038 399.318 128.539 410.534 131.54 419.323C134.672 428.112 140.349 434.671 148.57 439C156.791 443.329 168.601 445.494 184 445.494V500ZM0 283.156V217.041H62.0511V283.156H0Z" fill="white"></path><path d="M252.264 134.161V1.80949H304.46C314.495 1.80949 323.044 3.72668 330.106 7.56107C337.169 11.3524 342.553 16.63 346.256 23.3941C350.003 30.115 351.877 37.87 351.877 46.6589C351.877 55.4478 349.982 63.2028 346.192 69.9237C342.402 76.6447 336.911 81.8793 329.719 85.6275C322.57 89.3757 313.913 91.2498 303.75 91.2498H270.481V68.8251H299.228C304.611 68.8251 309.047 67.8988 312.535 66.0463C316.067 64.1506 318.694 61.5441 320.416 58.2267C322.182 54.8662 323.065 51.0103 323.065 46.6589C323.065 42.2644 322.182 38.43 320.416 35.1557C318.694 31.8384 316.067 29.2749 312.535 27.4654C309.004 25.6129 304.525 24.6866 299.099 24.6866H280.235V134.161H252.264Z" fill="white"></path><path d="M491.622 67.985C491.622 82.4178 488.888 94.6965 483.418 104.821C477.992 114.946 470.584 122.679 461.196 128.021C451.85 133.32 441.342 135.97 429.671 135.97C417.914 135.97 407.363 133.299 398.017 127.957C388.672 122.614 381.286 114.881 375.859 104.756C370.433 94.6319 367.72 82.3747 367.72 67.985C367.72 53.5522 370.433 41.2735 375.859 31.149C381.286 21.0245 388.672 13.3127 398.017 8.01345C407.363 2.67115 417.914 0 429.671 0C441.342 0 451.85 2.67115 461.196 8.01345C470.584 13.3127 477.992 21.0245 483.418 31.149C488.888 41.2735 491.622 53.5522 491.622 67.985ZM463.263 67.985C463.263 58.636 461.863 50.7518 459.064 44.3324C456.308 37.9131 452.41 33.0447 447.371 29.7273C442.333 26.4099 436.432 24.7512 429.671 24.7512C422.91 24.7512 417.009 26.4099 411.971 29.7273C406.932 33.0447 403.013 37.9131 400.213 44.3324C397.457 50.7518 396.079 58.636 396.079 67.985C396.079 77.334 397.457 85.2182 400.213 91.6376C403.013 98.057 406.932 102.925 411.971 106.243C417.009 109.56 422.91 111.219 429.671 111.219C436.432 111.219 442.333 109.56 447.371 106.243C452.41 102.925 456.308 98.057 459.064 91.6376C461.863 85.2182 463.263 77.334 463.263 67.985Z" fill="white"></path><path d="M512.343 134.161V1.80949H540.314V111.09H597.033V134.161H512.343Z" fill="white"></path><path d="M643.529 1.80949V134.161H615.557V1.80949H643.529Z" fill="white"></path><path d="M666.543 1.80949H701.039L737.473 90.7328H739.024L775.458 1.80949H809.954V134.161H782.822V48.016H781.724L747.486 133.514H729.011L694.773 47.6929H693.675V134.161H666.543V1.80949Z" fill="white"></path><path d="M860.972 1.80949V134.161H833V1.80949H860.972Z" fill="white"></path><path d="M299.163 316.143H252.264V183.792H299.551C312.858 183.792 324.314 186.442 333.918 191.741C343.522 196.997 350.908 204.558 356.076 214.424C361.287 224.29 363.892 236.095 363.892 249.838C363.892 263.625 361.287 275.473 356.076 285.382C350.908 295.291 343.479 302.895 333.789 308.194C324.142 313.494 312.6 316.143 299.163 316.143ZM280.235 292.167H298C306.269 292.167 313.224 290.703 318.866 287.773C324.551 284.8 328.814 280.212 331.657 274.008C334.542 267.761 335.985 259.704 335.985 249.838C335.985 240.059 334.542 232.067 331.657 225.863C328.814 219.659 324.572 215.092 318.931 212.162C313.289 209.233 306.334 207.768 298.065 207.768H280.235V292.167Z" fill="white"></path><path d="M399.955 316.143H369.981L415.653 183.792H451.7L497.307 316.143H467.333L434.193 214.036H433.159L399.955 316.143ZM398.082 264.12H468.883V285.964H398.082V264.12Z" fill="white"></path><path d="M492.026 206.863V183.792H600.683V206.863H560.179V316.143H532.53V206.863H492.026Z" fill="white"></path><path d="M625.215 316.143H595.24L640.913 183.792H676.959L722.567 316.143H692.593L659.453 214.036H658.419L625.215 316.143ZM623.341 264.12H694.143V285.964H623.341V264.12Z" fill="white"></path><path d="M324.034 403.839C323.517 398.626 321.299 394.576 317.38 391.689C313.461 388.803 308.142 387.359 301.424 387.359C296.859 387.359 293.005 388.006 289.861 389.298C286.717 390.548 284.305 392.292 282.626 394.533C280.989 396.773 280.171 399.315 280.171 402.158C280.085 404.528 280.58 406.596 281.657 408.362C282.776 410.129 284.305 411.658 286.243 412.951C288.181 414.2 290.421 415.299 292.962 416.247C295.502 417.151 298.216 417.927 301.101 418.573L312.987 421.417C318.758 422.709 324.056 424.432 328.879 426.587C333.703 428.741 337.88 431.39 341.411 434.535C344.943 437.68 347.678 441.386 349.616 445.651C351.597 449.916 352.609 454.806 352.652 460.321C352.609 468.42 350.542 475.443 346.45 481.388C342.402 487.29 336.545 491.879 328.879 495.153C321.256 498.384 312.062 500 301.295 500C290.614 500 281.312 498.363 273.388 495.089C265.507 491.814 259.348 486.967 254.912 480.548C250.519 474.086 248.215 466.094 248 456.572H275.067C275.369 461.01 276.639 464.715 278.879 467.688C281.161 470.617 284.197 472.836 287.987 474.344C291.82 475.809 296.148 476.541 300.972 476.541C305.709 476.541 309.822 475.852 313.31 474.473C316.842 473.095 319.577 471.177 321.515 468.722C323.453 466.266 324.422 463.444 324.422 460.256C324.422 457.283 323.539 454.784 321.773 452.759C320.05 450.735 317.509 449.011 314.15 447.59C310.834 446.168 306.764 444.875 301.941 443.712L287.535 440.093C276.381 437.379 267.574 433.135 261.114 427.362C254.654 421.589 251.445 413.812 251.488 404.033C251.445 396.019 253.577 389.018 257.884 383.03C262.234 377.041 268.198 372.367 275.778 369.006C283.358 365.646 291.971 363.965 301.618 363.965C311.437 363.965 320.007 365.646 327.329 369.006C334.693 372.367 340.421 377.041 344.512 383.03C348.604 389.018 350.714 395.954 350.843 403.839H324.034Z" fill="white"></path><path d="M488.198 412.111H459.904C459.387 408.449 458.332 405.196 456.738 402.352C455.145 399.466 453.099 397.01 450.601 394.985C448.103 392.96 445.218 391.409 441.945 390.332C438.715 389.255 435.205 388.717 431.415 388.717C424.568 388.717 418.603 390.418 413.521 393.822C408.439 397.182 404.499 402.094 401.699 408.556C398.9 414.976 397.5 422.774 397.5 431.95C397.5 441.386 398.9 449.313 401.699 455.732C404.542 462.152 408.504 466.998 413.586 470.273C418.667 473.547 424.546 475.184 431.221 475.184C434.968 475.184 438.435 474.689 441.622 473.698C444.852 472.707 447.716 471.264 450.214 469.368C452.712 467.429 454.779 465.081 456.415 462.324C458.095 459.567 459.258 456.422 459.904 452.889L488.198 453.018C487.466 459.093 485.636 464.952 482.707 470.596C479.822 476.197 475.924 481.216 471.015 485.653C466.148 490.048 460.334 493.538 453.573 496.123C446.855 498.664 439.253 499.935 430.769 499.935C418.969 499.935 408.418 497.264 399.115 491.922C389.856 486.58 382.535 478.846 377.151 468.722C371.811 458.597 369.141 446.34 369.141 431.95C369.141 417.518 371.854 405.239 377.281 395.114C382.707 384.99 390.071 377.278 399.374 371.979C408.676 366.637 419.141 363.965 430.769 363.965C438.435 363.965 445.541 365.042 452.087 367.197C458.676 369.351 464.512 372.496 469.594 376.632C474.676 380.725 478.81 385.744 481.997 391.689C485.227 397.635 487.294 404.442 488.198 412.111Z" fill="white"></path><path d="M536.229 365.775V498.126H508.257V365.775H536.229Z" fill="white"></path><path d="M559.242 498.126V365.775H648.39V388.846H587.214V420.383H643.803V443.454H587.214V475.055H648.648V498.126H559.242Z" fill="white"></path><path d="M781.288 365.775V498.126H757.128L699.569 414.825H698.6V498.126H670.629V365.775H695.176L752.283 449.011H753.446V365.775H781.288Z" fill="white"></path><path d="M799.36 388.846V365.775H908.017V388.846H867.513V498.126H839.864V388.846H799.36Z" fill="white"></path><path d="M953.883 365.775V498.126H925.911V365.775H953.883Z" fill="white"></path><path d="M1048.67 403.839C1048.15 398.626 1045.93 394.576 1042.01 391.689C1038.09 388.803 1032.78 387.359 1026.06 387.359C1021.49 387.359 1017.64 388.006 1014.49 389.298C1011.35 390.548 1008.94 392.292 1007.26 394.533C1005.62 396.773 1004.8 399.315 1004.8 402.158C1004.72 404.528 1005.21 406.596 1006.29 408.362C1007.41 410.129 1008.94 411.658 1010.88 412.951C1012.81 414.2 1015.05 415.299 1017.59 416.247C1020.14 417.151 1022.85 417.927 1025.73 418.573L1037.62 421.417C1043.39 422.709 1048.69 424.432 1053.51 426.587C1058.34 428.741 1062.51 431.39 1066.04 434.535C1069.58 437.68 1072.31 441.386 1074.25 445.651C1076.23 449.916 1077.24 454.806 1077.28 460.321C1077.24 468.42 1075.17 475.443 1071.08 481.388C1067.04 487.29 1061.18 491.879 1053.51 495.153C1045.89 498.384 1036.69 500 1025.93 500C1015.25 500 1005.94 498.363 998.021 495.089C990.14 491.814 983.981 486.967 979.545 480.548C975.152 474.086 972.848 466.094 972.633 456.572H999.7C1000 461.01 1001.27 464.715 1003.51 467.688C1005.79 470.617 1008.83 472.836 1012.62 474.344C1016.45 475.809 1020.78 476.541 1025.6 476.541C1030.34 476.541 1034.46 475.852 1037.94 474.473C1041.47 473.095 1044.21 471.177 1046.15 468.722C1048.09 466.266 1049.05 463.444 1049.05 460.256C1049.05 457.283 1048.17 454.784 1046.41 452.759C1044.68 450.735 1042.14 449.011 1038.78 447.59C1035.47 446.168 1031.4 444.875 1026.57 443.712L1012.17 440.093C1001.01 437.379 992.207 433.135 985.747 427.362C979.287 421.589 976.078 413.812 976.121 404.033C976.078 396.019 978.21 389.018 982.517 383.03C986.866 377.041 992.831 372.367 1000.41 369.006C1007.99 365.646 1016.6 363.965 1026.25 363.965C1036.07 363.965 1044.64 365.646 1051.96 369.006C1059.33 372.367 1065.05 377.041 1069.15 383.03C1073.24 389.018 1075.35 395.954 1075.48 403.839H1048.67Z" fill="white"></path><path d="M1091.06 388.846V365.775H1199.72V388.846H1159.21V498.126H1131.56V388.846H1091.06Z" fill="white"></path><path d="M1289.38 403.839C1288.87 398.626 1286.65 394.576 1282.73 391.689C1278.81 388.803 1273.49 387.359 1266.77 387.359C1262.21 387.359 1258.35 388.006 1255.21 389.298C1252.07 390.548 1249.65 392.292 1247.97 394.533C1246.34 396.773 1245.52 399.315 1245.52 402.158C1245.43 404.528 1245.93 406.596 1247 408.362C1248.12 410.129 1249.65 411.658 1251.59 412.951C1253.53 414.2 1255.77 415.299 1258.31 416.247C1260.85 417.151 1263.56 417.927 1266.45 418.573L1278.34 421.417C1284.11 422.709 1289.4 424.432 1294.23 426.587C1299.05 428.741 1303.23 431.39 1306.76 434.535C1310.29 437.68 1313.03 441.386 1314.96 445.651C1316.94 449.916 1317.96 454.806 1318 460.321C1317.96 468.42 1315.89 475.443 1311.8 481.388C1307.75 487.29 1301.89 491.879 1294.23 495.153C1286.6 498.384 1277.41 500 1266.64 500C1255.96 500 1246.66 498.363 1238.74 495.089C1230.85 491.814 1224.7 486.967 1220.26 480.548C1215.87 474.086 1213.56 466.094 1213.35 456.572H1240.42C1240.72 461.01 1241.99 464.715 1244.23 467.688C1246.51 470.617 1249.55 472.836 1253.34 474.344C1257.17 475.809 1261.5 476.541 1266.32 476.541C1271.06 476.541 1275.17 475.852 1278.66 474.473C1282.19 473.095 1284.92 471.177 1286.86 468.722C1288.8 466.266 1289.77 463.444 1289.77 460.256C1289.77 457.283 1288.89 454.784 1287.12 452.759C1285.4 450.735 1282.86 449.011 1279.5 447.59C1276.18 446.168 1272.11 444.875 1267.29 443.712L1252.88 440.093C1241.73 437.379 1232.92 433.135 1226.46 427.362C1220 421.589 1216.79 413.812 1216.84 404.033C1216.79 396.019 1218.93 389.018 1223.23 383.03C1227.58 377.041 1233.55 372.367 1241.13 369.006C1248.71 365.646 1257.32 363.965 1266.97 363.965C1276.79 363.965 1285.36 365.646 1292.68 369.006C1300.04 372.367 1305.77 377.041 1309.86 383.03C1313.95 389.018 1316.06 395.954 1316.19 403.839H1289.38Z" fill="white"></path></svg>